<svg id="Layer_1" data-name="Layer 1" xmlns="http://www.w3.org/2000/svg" viewBox="0 0 258.68917 57.03463"><defs><style>.cls-1{fill:#232323;}.cls-2{fill:#00f497;stroke:#3c3c3c;stroke-miterlimit:10;stroke-width:2px;}</style></defs><title>citymainlogoname</title><path class="cls-1" d="M91.19434,19.94287l-3.65772,1.12647Q85.1709,11.78369,76.75635,11.7832a11.07271,11.07271,0,0,0-9.68067,5.30274q-3.27246,4.83545-3.27246,12.74756,0,9.03882,4.20752,13.98388a11.02248,11.02248,0,0,0,8.74561,4.09375q8.855,0,11.16553-9.45117l3.60253,1.34668Q88.00367,51.12549,76.70117,51.126a14.85955,14.85955,0,0,1-12.54053-6.31934q-4.28979-5.74218-4.29-14.89062,0-10.54981,5.52783-16.457A14.84093,14.84093,0,0,1,76.70117,8.56885a14.21031,14.21031,0,0,1,9.73535,3.43408A15.98575,15.98575,0,0,1,91.19434,19.94287Z" transform="translate(-23.14286 -3.48686)"/><path class="cls-1" d="M104.3125,10.87646V16.124H99.14209V10.87646Zm-.8252,11.31934V50.3291H99.99463V22.1958Z" transform="translate(-23.14286 -3.48686)"/><path class="cls-1" d="M119.65771,12.11279v10.083h7.09522v2.80225h-7.09522V43.2959q0,4.97315,4.18018,4.97265a16.73507,16.73507,0,0,0,3.65772-.4121l-.24756,2.85742a23.75221,23.75221,0,0,1-3.98731.30176q-7.0957,0-7.0957-7.03321V24.99805H111.3252V22.1958H116.165V12.90967Z" transform="translate(-23.14286 -3.48686)"/><path class="cls-1" d="M154.47412,22.1958,143.83105,51.78516q-1.78784,5.05517-4.45507,7.06054a8.86042,8.86042,0,0,1-5.52784,1.67578,13.27961,13.27961,0,0,1-2.52978-.21972l-.27539-3.04883a13.22912,13.22912,0,0,0,2.80517.3291,5.59768,5.59768,0,0,0,4.208-1.67578,13.218,13.218,0,0,0,2.66748-4.72559l.52246-1.3457L131.208,22.1958h3.76806l6.105,18.13233q.55,1.67724,1.67774,5.66015h.2749q.41235-1.18067,1.01758-3.13183.63209-1.95119.85254-2.665l5.96777-17.99561Z" transform="translate(-23.14286 -3.48686)"/><path class="cls-1" d="M202.05176,9.31055V50.3291h-3.54785V24.50342l.05468-12.14307h-.63183q-.82617,2.80225-3.87793,11.92334L184.80859,50.3291h-4.78515l-9.10352-26.04541q-2.00683-5.71362-3.96-11.92334h-.60449q-.02784,1.1814-.02734,2.47266l.082,9.72558V50.3291h-3.38282V9.31055h6.24317l8.91015,25.71582q2.2002,6.26367,4.043,12.0332h.57715q3.1626-9.42334,4.043-11.86816l9.02051-25.88086Z" transform="translate(-23.14286 -3.48686)"/><path class="cls-1" d="M213.27148,28.73486q2.5298-7.22607,11.083-7.22607,9.98292,0,9.9834,9.34131v9.91845a56.47392,56.47392,0,0,0,.6875,9.56055h-3.27246a40.19589,40.19589,0,0,1-.63281-4.94531,11.58562,11.58562,0,0,1-10.17578,5.63184q-4.48244,0-6.84766-2.582a7.89174,7.89174,0,0,1-2.00781-5.57714q0-7.6377,9.51562-9.23145a80.75308,80.75308,0,0,1,9.35059-.90625V31.207q0-4.01074-1.75977-5.57715-1.541-1.37328-4.89551-1.37353-6.0498,0-7.75488,5.65967Zm17.6836,6.56592a51.80545,51.80545,0,0,0-8.60742.90723q-6.76613,1.374-6.76563,6.4834a5.22466,5.22466,0,0,0,1.75977,4.23047,6.2353,6.2353,0,0,0,4.208,1.34667q5.66455,0,9.40528-6.0996Z" transform="translate(-23.14286 -3.48686)"/><path class="cls-1" d="M249.82031,10.87646V16.124h-5.16992V10.87646Zm-.82519,11.31934V50.3291h-3.49219V22.1958Z" transform="translate(-23.14286 -3.48686)"/><path class="cls-1" d="M263.6543,22.1958V27.416q4.73-5.907,10.28515-5.90723a7.60649,7.60649,0,0,1,5.96778,2.39062,7.92743,7.92743,0,0,1,1.9248,5.54932V50.3291h-3.54687V30.90527q0-6.23657-5.22559-6.23681-4.8955,0-9.2959,5.85205V50.3291h-3.49219V22.1958Z" transform="translate(-23.14286 -3.48686)"/><path class="cls-2" d="M14.54167,1H32.79524a0,0,0,0,1,0,0V36.20357a11.875,11.875,0,0,1-11.875,11.875H1a0,0,0,0,1,0,0V14.54167A13.54167,13.54167,0,0,1,14.54167,1Z"/></svg>